<?xml version="1.0" encoding="UTF-8" standalone="no"?>
<svg
   xmlns:dc="http://purl.org/dc/elements/1.1/"
   xmlns:cc="http://creativecommons.org/ns#"
   xmlns:rdf="http://www.w3.org/1999/02/22-rdf-syntax-ns#"
   xmlns:svg="http://www.w3.org/2000/svg"
   xmlns="http://www.w3.org/2000/svg"
   width="11.1259mm"
   height="11.962693mm"
   viewBox="0 0 11.1259 11.962693"
   version="1.1"
   id="svg8">
  <defs
     id="defs2">
    <rect
       x="34.985989"
       y="89.707657"
       width="27.809374"
       height="21.350424"
       id="rect18" />
    <rect
       x="46.869049"
       y="71.059525"
       width="106.58929"
       height="86.178574"
       id="rect12" />
  </defs>
  <metadata
     id="metadata5">
    <rdf:RDF>
      <cc:Work
         rdf:about="">
        <dc:format>image/svg+xml</dc:format>
        <dc:type
           rdf:resource="http://purl.org/dc/dcmitype/StillImage" />
        <dc:title></dc:title>
      </cc:Work>
    </rdf:RDF>
  </metadata>
  <g
     id="layer1"
     transform="translate(-47.339395,-73.081474)">
    <g
       aria-label="oö"
       id="text10"
       style="font-style:normal;font-weight:normal;font-size:10.5833px;line-height:1.25;font-family:sans-serif;white-space:pre;shape-inside:url(#rect12);fill:#000000;fill-opacity:1;stroke:none">
      <path
         d="m 47.339395,77.866697 q 0,-0.821653 0.320393,-1.477942 0.32556,-0.656288 0.899167,-1.012855 0.578774,-0.356566 1.317744,-0.356566 1.142046,0 1.844843,0.790647 0.707965,0.790647 0.707965,2.103224 v 0.06718 q 0,0.816485 -0.315225,1.467606 -0.310058,0.645954 -0.894,1.007688 -0.578774,0.361733 -1.333247,0.361733 -1.136878,0 -1.844843,-0.790647 -0.702797,-0.790646 -0.702797,-2.092888 z m 0.961178,0.113687 q 0,0.930173 0.428913,1.493444 0.434081,0.563272 1.157549,0.563272 0.728635,0 1.157548,-0.568439 0.428913,-0.573607 0.428913,-1.601964 0,-0.919838 -0.439248,-1.488277 -0.434081,-0.573607 -1.157549,-0.573607 -0.707964,0 -1.142045,0.563272 -0.434081,0.563271 -0.434081,1.612299 z"
         style="font-style:normal;font-variant:normal;font-weight:normal;font-stretch:normal;font-family:Roboto;-inkscape-font-specification:Roboto;fill:#ffffff"
         id="path25" />
      <path
         d="m 53.375183,77.866697 q 0,-0.821653 0.320393,-1.477942 0.32556,-0.656288 0.899167,-1.012855 0.578774,-0.356566 1.317744,-0.356566 1.142046,0 1.844843,0.790647 0.707965,0.790647 0.707965,2.103224 v 0.06718 q 0,0.816485 -0.315225,1.467606 -0.310058,0.645954 -0.894,1.007688 -0.578774,0.361733 -1.333247,0.361733 -1.136878,0 -1.844843,-0.790647 -0.702797,-0.790646 -0.702797,-2.092888 z m 0.961178,0.113687 q 0,0.930173 0.428913,1.493444 0.434081,0.563272 1.157549,0.563272 0.728635,0 1.157548,-0.568439 0.428913,-0.573607 0.428913,-1.601964 0,-0.919838 -0.439248,-1.488277 -0.434081,-0.573607 -1.157549,-0.573607 -0.707964,0 -1.142045,0.563272 -0.434081,0.563271 -0.434081,1.612299 z m -0.124023,-4.351141 q 0,-0.232544 0.139526,-0.387572 0.144694,-0.160197 0.423746,-0.160197 0.279051,0 0.423745,0.160197 0.144694,0.155028 0.144694,0.387572 0,0.232543 -0.144694,0.387572 -0.144694,0.155028 -0.423745,0.155028 -0.279052,0 -0.423746,-0.155028 -0.139526,-0.155029 -0.139526,-0.387572 z m 2.22208,0.01033 q 0,-0.232543 0.139526,-0.39274 0.144693,-0.160196 0.423745,-0.160196 0.279052,0 0.423745,0.160196 0.144694,0.160197 0.144694,0.39274 0,0.232543 -0.144694,0.387572 -0.144693,0.155029 -0.423745,0.155029 -0.279052,0 -0.423745,-0.155029 -0.139526,-0.155029 -0.139526,-0.387572 z"
         style="font-style:normal;font-variant:normal;font-weight:normal;font-stretch:normal;font-family:Roboto;-inkscape-font-specification:Roboto;fill:#ffffff"
         id="path27" />
    </g>
    <g
       aria-label=")"
       transform="rotate(90,51.564943,97.752229)"
       id="text16"
       style="font-style:normal;font-weight:normal;font-size:10.5833px;line-height:1.25;font-family:sans-serif;white-space:pre;shape-inside:url(#rect18);fill:#000000;fill-opacity:1;stroke:none">
      <path
         d="m 38.856881,96.406614 q 0,1.555456 -0.506428,2.795686 -0.506427,1.24023 -1.421097,2.28926 h -1.183387 v -0.0517 q 0.397908,-0.35656 0.795815,-0.87333 0.403075,-0.51159 0.707965,-1.14721 0.320393,-0.661456 0.506427,-1.395259 0.191202,-0.733803 0.191202,-1.617467 0,-0.847491 -0.191202,-1.6123 -0.191202,-0.764808 -0.506427,-1.400427 -0.325561,-0.656288 -0.707965,-1.147213 -0.377237,-0.496092 -0.795815,-0.873329 v -0.05168 h 1.183387 q 0.91467,1.049028 1.421097,2.289259 0.506428,1.24023 0.506428,2.795686 z"
         id="path22"
         style="fill:#ffffff" />
    </g>
  </g>
</svg>
